<?xml version="1.0" standalone="no"?>
<!DOCTYPE svg PUBLIC "-//W3C//DTD SVG 20010904//EN"
 "http://www.w3.org/TR/2001/REC-SVG-20010904/DTD/svg10.dtd">
<svg version="1.0" xmlns="http://www.w3.org/2000/svg"
 width="1090.000000pt" height="1090.000000pt" viewBox="0 0 1090.000000 1090.000000"
 preserveAspectRatio="xMidYMid meet">
<metadata>
Created by potrace 1.14, written by Peter Selinger 2001-2017
</metadata>
<g transform="translate(0.000000,1090.000000) scale(0.100000,-0.100000)"
fill="#000000" stroke="none">
<path d="M5195 10890 c-1727 -82 -3301 -970 -4270 -2410 -464 -691 -771 -1504
-875 -2325 -33 -260 -42 -422 -42 -705 0 -614 86 -1153 276 -1725 587 -1761
2047 -3112 3849 -3559 447 -111 839 -158 1317 -158 614 0 1153 86 1725 276
1761 587 3112 2047 3559 3849 111 445 158 839 158 1312 0 619 -86 1157 -276
1730 -690 2072 -2571 3540 -4746 3704 -203 15 -485 20 -675 11z m3416 -3312
c-172 -235 -2167 -2907 -2171 -2907 -4 0 -2030 2790 -2125 2927 l-16 22 2171
0 2172 0 -31 -42z m-3129 -2796 l1097 -1497 -1084 -3 c-597 -1 -1573 -1 -2170
0 l-1085 3 1068 1497 c587 824 1069 1497 1072 1497 3 0 499 -674 1102 -1497z"/>
</g>
</svg>
